REM DIRINDEX 1\2,1\3,1\4,1\5
REM DIRNAME cjc156,folder01,folder02,folder03,folder04
TITLE ""
FILE "CD2Track10.mp3" MP3
  TRACK 01 AUDIO
    TITLE "5:cjc156_2814"
    INDEX 01 00:00:00
  TRACK 02 AUDIO
    TITLE "0:"
    INDEX 01 00:01:32
  TRACK 03 AUDIO
    TITLE "2:cjc156_2815"
    INDEX 01 00:02:34
  TRACK 04 AUDIO
    TITLE "3:cjc156_2816"
    INDEX 01 00:04:46
  TRACK 05 AUDIO
    TITLE "2:cjc156_2817"
    INDEX 01 00:06:63
  TRACK 06 AUDIO
    TITLE "3:cjc156_2818"
    INDEX 01 00:09:14
  TRACK 07 AUDIO
    TITLE "2:cjc156_2819"
    INDEX 01 00:11:44
  TRACK 08 AUDIO
    TITLE "3:cjc156_2820"
    INDEX 01 00:14:68
  TRACK 09 AUDIO
    TITLE "2:cjc156_2821"
    INDEX 01 00:18:29
  TRACK 10 AUDIO
    TITLE "3:cjc156_2822"
    INDEX 01 00:21:35
  TRACK 11 AUDIO
    TITLE "2:cjc156_2823"
    INDEX 01 00:24:53
  TRACK 12 AUDIO
    TITLE "3:cjc156_2824"
    INDEX 01 00:27:04
  TRACK 13 AUDIO
    TITLE "2:cjc156_2825"
    INDEX 01 00:29:38
  TRACK 14 AUDIO
    TITLE "3:cjc156_2826"
    INDEX 01 00:31:55
  TRACK 15 AUDIO
    TITLE "2:cjc156_2827"
    INDEX 01 00:34:06
  TRACK 16 AUDIO
    TITLE "3:cjc156_2828"
    INDEX 01 00:36:21
  TRACK 17 AUDIO
    TITLE "2:cjc156_2829"
    INDEX 01 00:38:43
  TRACK 18 AUDIO
    TITLE "3:cjc156_2830"
    INDEX 01 00:39:74
  TRACK 19 AUDIO
    TITLE "2:cjc156_2831"
    INDEX 01 00:41:36
  TRACK 20 AUDIO
    TITLE "3:cjc156_2832"
    INDEX 01 00:42:65
  TRACK 21 AUDIO
    TITLE "2:cjc156_2833"
    INDEX 01 00:44:28
  TRACK 22 AUDIO
    TITLE "3:cjc156_2834"
    INDEX 01 00:46:09
  TRACK 23 AUDIO
    TITLE "2:cjc156_2835"
    INDEX 01 00:48:04
  TRACK 24 AUDIO
    TITLE "3:cjc156_2836"
    INDEX 01 00:49:33
  TRACK 25 AUDIO
    TITLE "2:cjc156_2837"
    INDEX 01 00:50:70
  TRACK 26 AUDIO
    TITLE "3:cjc156_2838"
    INDEX 01 00:52:36
  TRACK 27 AUDIO
    TITLE "2:cjc156_2839"
    INDEX 01 00:54:11
  TRACK 28 AUDIO
    TITLE "3:cjc156_2840"
    INDEX 01 00:56:00
  TRACK 29 AUDIO
    TITLE "2:cjc156_2841"
    INDEX 01 00:57:72
  TRACK 30 AUDIO
    TITLE "3:cjc156_2842"
    INDEX 01 00:59:41
  TRACK 31 AUDIO
    TITLE "2:cjc156_2843"
    INDEX 01 01:01:19
  TRACK 32 AUDIO
    TITLE "3:cjc156_2844"
    INDEX 01 01:02:48
  TRACK 33 AUDIO
    TITLE "2:cjc156_2845"
    INDEX 01 01:04:03
  TRACK 34 AUDIO
    TITLE "3:cjc156_2846"
    INDEX 01 01:05:60
  TRACK 35 AUDIO
    TITLE "2:cjc156_2847"
    INDEX 01 01:07:49
  TRACK 36 AUDIO
    TITLE "3:cjc156_2848"
    INDEX 01 01:09:34
  TRACK 37 AUDIO
    TITLE "2:cjc156_2849"
    INDEX 01 01:11:27
  TRACK 38 AUDIO
    TITLE "3:cjc156_2850"
    INDEX 01 01:12:38
  TRACK 39 AUDIO
    TITLE "2:cjc156_2851"
    INDEX 01 01:13:59
  TRACK 40 AUDIO
    TITLE "3:cjc156_2852"
    INDEX 01 01:15:46
  TRACK 41 AUDIO
    TITLE "2:cjc156_2853"
    INDEX 01 01:17:43
  TRACK 42 AUDIO
    TITLE "3:cjc156_2854"
    INDEX 01 01:19:15
  TRACK 43 AUDIO
    TITLE "2:cjc156_2855"
    INDEX 01 01:20:63
  TRACK 44 AUDIO
    TITLE "3:cjc156_2856"
    INDEX 01 01:24:63
  TRACK 45 AUDIO
    TITLE "2:cjc156_2857"
    INDEX 01 01:28:71
  TRACK 46 AUDIO
    TITLE "3:cjc156_2858"
    INDEX 01 01:30:71
  TRACK 47 AUDIO
    TITLE "2:cjc156_2859"
    INDEX 01 01:33:05
  TRACK 48 AUDIO
    TITLE "3:cjc156_2860"
    INDEX 01 01:35:12
  TRACK 49 AUDIO
    TITLE "2:cjc156_2861"
    INDEX 01 01:37:22
  TRACK 50 AUDIO
    TITLE "3:cjc156_2862"
    INDEX 01 01:38:69
  TRACK 51 AUDIO
    TITLE "2:cjc156_2863"
    INDEX 01 01:40:48
  TRACK 52 AUDIO
    TITLE "3:cjc156_2864"
    INDEX 01 01:43:11
  TRACK 53 AUDIO
    TITLE "2:cjc156_2865"
    INDEX 01 01:45:61
  TRACK 54 AUDIO
    TITLE "3:cjc156_2866"
    INDEX 01 01:47:44
  TRACK 55 AUDIO
    TITLE "2:cjc156_2867"
    INDEX 01 01:49:37
  TRACK 56 AUDIO
    TITLE "3:cjc156_2868"
    INDEX 01 01:51:60
  TRACK 57 AUDIO
    TITLE "2:cjc156_2869"
    INDEX 01 01:54:15
  TRACK 58 AUDIO
    TITLE "3:cjc156_2870"
    INDEX 01 01:55:56
  TRACK 59 AUDIO
    TITLE "2:cjc156_2871"
    INDEX 01 01:57:23
  TRACK 60 AUDIO
    TITLE "3:cjc156_2872"
    INDEX 01 01:59:18
  TRACK 61 AUDIO
    TITLE "2:cjc156_2873"
    INDEX 01 02:01:21
  TRACK 62 AUDIO
    TITLE "3:cjc156_2874"
    INDEX 01 02:03:26
  TRACK 63 AUDIO
    TITLE "2:cjc156_2875"
    INDEX 01 02:05:36
  TRACK 64 AUDIO
    TITLE "3:cjc156_2876"
    INDEX 01 02:07:27
  TRACK 65 AUDIO
    TITLE "2:cjc156_2877"
    INDEX 01 02:09:28
  TRACK 66 AUDIO
    TITLE "3:cjc156_2878"
    INDEX 01 02:11:12
  TRACK 67 AUDIO
    TITLE "2:cjc156_2879"
    INDEX 01 02:12:74
  TRACK 68 AUDIO
    TITLE "3:cjc156_2880"
    INDEX 01 02:14:49
  TRACK 69 AUDIO
    TITLE "2:cjc156_2881"
    INDEX 01 02:16:30
  TRACK 70 AUDIO
    TITLE "3:cjc156_2882"
    INDEX 01 02:18:19
  TRACK 71 AUDIO
    TITLE "2:cjc156_2883"
    INDEX 01 02:20:11
  TRACK 72 AUDIO
    TITLE "3:cjc156_2884"
    INDEX 01 02:21:51
  TRACK 73 AUDIO
    TITLE "2:cjc156_2885"
    INDEX 01 02:23:28
  TRACK 74 AUDIO
    TITLE "3:cjc156_2886"
    INDEX 01 02:24:59
  TRACK 75 AUDIO
    TITLE "2:cjc156_2887"
    INDEX 01 02:26:25
  TRACK 76 AUDIO
    TITLE "3:cjc156_2888"
    INDEX 01 02:28:41
  TRACK 77 AUDIO
    TITLE "2:cjc156_2889"
    INDEX 01 02:30:72
  TRACK 78 AUDIO
    TITLE "3:cjc156_2890"
    INDEX 01 02:32:41
  TRACK 79 AUDIO
    TITLE "2:cjc156_2891"
    INDEX 01 02:34:20
  TRACK 80 AUDIO
    TITLE "3:cjc156_2892"
    INDEX 01 02:35:53
  TRACK 81 AUDIO
    TITLE "2:cjc156_2893"
    INDEX 01 02:37:19
  TRACK 82 AUDIO
    TITLE "3:cjc156_2894"
    INDEX 01 02:39:00
  TRACK 83 AUDIO
    TITLE "2:cjc156_2895"
    INDEX 01 02:40:66
  TRACK 84 AUDIO
    TITLE "3:cjc156_2896"
    INDEX 01 02:43:27
  TRACK 85 AUDIO
    TITLE "2:cjc156_2897"
    INDEX 01 02:45:73
  TRACK 86 AUDIO
    TITLE "3:cjc156_2898"
    INDEX 01 02:47:17
  TRACK 87 AUDIO
    TITLE "2:cjc156_2899"
    INDEX 01 02:48:46
  TRACK 88 AUDIO
    TITLE "3:cjc156_2900"
    INDEX 01 02:50:12
  TRACK 89 AUDIO
    TITLE "2:cjc156_2901"
    INDEX 01 02:51:62
  TRACK 90 AUDIO
    TITLE "3:cjc156_2902"
    INDEX 01 02:54:23
  TRACK 91 AUDIO
    TITLE "2:cjc156_2903"
    INDEX 01 02:56:69
  TRACK 92 AUDIO
    TITLE "3:cjc156_2904"
    INDEX 01 02:59:11
  TRACK 93 AUDIO
    TITLE "2:cjc156_2905"
    INDEX 01 03:01:37
  TRACK 94 AUDIO
    TITLE "3:cjc156_2906"
    INDEX 01 03:02:68
  TRACK 95 AUDIO
    TITLE "2:cjc156_2907"
    INDEX 01 03:04:37
  TRACK 96 AUDIO
    TITLE "3:cjc156_2908"
    INDEX 01 03:06:50
  TRACK 97 AUDIO
    TITLE "2:cjc156_2909"
    INDEX 01 03:08:72
  TRACK 98 AUDIO
    TITLE "3:cjc156_2910"
    INDEX 01 03:11:02
  TRACK 99 AUDIO
    TITLE "2:cjc156_2911"
    INDEX 01 03:13:21
  TRACK 100 AUDIO
    TITLE "3:cjc156_2912"
    INDEX 01 03:15:12
  TRACK 101 AUDIO
    TITLE "2:cjc156_2913"
    INDEX 01 03:17:09
  TRACK 102 AUDIO
    TITLE "3:cjc156_2914"
    INDEX 01 03:18:41
  TRACK 103 AUDIO
    TITLE "2:cjc156_2915"
    INDEX 01 03:20:07
  TRACK 104 AUDIO
    TITLE "3:cjc156_2916"
    INDEX 01 03:21:44
  TRACK 105 AUDIO
    TITLE "2:cjc156_2917"
    INDEX 01 03:23:05
  TRACK 106 AUDIO
    TITLE "3:cjc156_2918"
    INDEX 01 03:24:11
  TRACK 107 AUDIO
    TITLE "2:cjc156_2919"
    INDEX 01 03:25:18
  TRACK 108 AUDIO
    TITLE "3:cjc156_2920"
    INDEX 01 03:26:58
  TRACK 109 AUDIO
    TITLE "2:cjc156_2921"
    INDEX 01 03:28:34
  TRACK 110 AUDIO
    TITLE "3:cjc156_2922"
    INDEX 01 03:29:51
  TRACK 111 AUDIO
    TITLE "2:cjc156_2923"
    INDEX 01 03:31:03
  TRACK 112 AUDIO
    TITLE "3:cjc156_2924"
    INDEX 01 03:33:08
  TRACK 113 AUDIO
    TITLE "2:cjc156_2925"
    INDEX 01 03:35:14
  TRACK 114 AUDIO
    TITLE "3:cjc156_2926"
    INDEX 01 03:37:11
  TRACK 115 AUDIO
    TITLE "2:cjc156_2927"
    INDEX 01 03:39:08
  TRACK 116 AUDIO
    TITLE "3:cjc156_2928"
    INDEX 01 03:41:21
  TRACK 117 AUDIO
    TITLE "2:cjc156_2929"
    INDEX 01 03:43:43
  TRACK 118 AUDIO
    TITLE "3:cjc156_2930"
    INDEX 01 03:45:26
  TRACK 119 AUDIO
    TITLE "2:cjc156_2931"
    INDEX 01 03:47:14
  TRACK 120 AUDIO
    TITLE "3:cjc156_2932"
    INDEX 01 03:49:09
  TRACK 121 AUDIO
    TITLE "2:cjc156_2933"
    INDEX 01 03:51:05
  TRACK 122 AUDIO
    TITLE "3:cjc156_2934"
    INDEX 01 03:53:10
  TRACK 123 AUDIO
    TITLE "2:cjc156_2935"
    INDEX 01 03:55:23
  TRACK 124 AUDIO
    TITLE "3:cjc156_2936"
    INDEX 01 03:56:71
  TRACK 125 AUDIO
    TITLE "2:cjc156_2937"
    INDEX 01 03:58:56
  TRACK 126 AUDIO
    TITLE "3:cjc156_2938"
    INDEX 01 04:00:71
  TRACK 127 AUDIO
    TITLE "2:cjc156_2939"
    INDEX 01 04:03:26
  TRACK 128 AUDIO
    TITLE "3:cjc156_2940"
    INDEX 01 04:05:19
  TRACK 129 AUDIO
    TITLE "2:cjc156_2941"
    INDEX 01 04:07:22
  TRACK 130 AUDIO
    TITLE "3:cjc156_2942"
    INDEX 01 04:09:17
  TRACK 131 AUDIO
    TITLE "2:cjc156_2943"
    INDEX 01 04:11:18
  TRACK 132 AUDIO
    TITLE "3:cjc156_2944"
    INDEX 01 04:12:23
  TRACK 133 AUDIO
    TITLE "2:cjc156_2945"
    INDEX 01 04:13:33
  TRACK 134 AUDIO
    TITLE "3:cjc156_2946"
    INDEX 01 04:15:69
  TRACK 135 AUDIO
    TITLE "2:cjc156_2947"
    INDEX 01 04:18:42
  TRACK 136 AUDIO
    TITLE "3:cjc156_2948"
    INDEX 01 04:21:52
  TRACK 137 AUDIO
    TITLE "2:cjc156_2949"
    INDEX 01 04:24:70
  TRACK 138 AUDIO
    TITLE "3:cjc156_2950"
    INDEX 01 04:26:19
  TRACK 139 AUDIO
    TITLE "2:cjc156_2951"
    INDEX 01 04:27:56
  TRACK 140 AUDIO
    TITLE "3:cjc156_2952"
    INDEX 01 04:30:06
  TRACK 141 AUDIO
    TITLE "2:cjc156_2953"
    INDEX 01 04:32:36
  TRACK 142 AUDIO
    TITLE "3:cjc156_2954"
    INDEX 01 04:33:55
  TRACK 143 AUDIO
    TITLE "2:cjc156_2955"
    INDEX 01 04:35:13
  TRACK 144 AUDIO
    TITLE "3:cjc156_2956"
    INDEX 01 04:37:06
  TRACK 145 AUDIO
    TITLE "2:cjc156_2957"
    INDEX 01 04:39:08
  TRACK 146 AUDIO
    TITLE "3:cjc156_2958"
    INDEX 01 04:40:51
  TRACK 147 AUDIO
    TITLE "2:cjc156_2959"
    INDEX 01 04:42:28
  TRACK 148 AUDIO
    TITLE "3:cjc156_2960"
    INDEX 01 04:43:45
  TRACK 149 AUDIO
    TITLE "2:cjc156_2961"
    INDEX 01 04:44:70
  TRACK 150 AUDIO
    TITLE "3:cjc156_2962"
    INDEX 01 04:47:00
  TRACK 151 AUDIO
    TITLE "2:cjc156_2963"
    INDEX 01 04:49:15
  TRACK 152 AUDIO
    TITLE "3:cjc156_2964"
    INDEX 01 04:50:51
  TRACK 153 AUDIO
    TITLE "2:cjc156_2965"
    INDEX 01 04:51:68
  TRACK 154 AUDIO
    TITLE "3:cjc156_2966"
    INDEX 01 04:53:36
  TRACK 155 AUDIO
    TITLE "2:cjc156_2967"
    INDEX 01 04:55:13
  TRACK 156 AUDIO
    TITLE "3:cjc156_2968"
    INDEX 01 04:57:16
  TRACK 157 AUDIO
    TITLE "2:cjc156_2969"
    INDEX 01 04:59:27
  TRACK 158 AUDIO
    TITLE "3:cjc156_2970"
    INDEX 01 05:01:02
  TRACK 159 AUDIO
    TITLE "2:cjc156_2971"
    INDEX 01 05:02:56
  TRACK 160 AUDIO
    TITLE "3:cjc156_2972"
    INDEX 01 05:05:00
  TRACK 161 AUDIO
    TITLE "2:cjc156_2973"
    INDEX 01 05:07:34
  TRACK 162 AUDIO
    TITLE "3:cjc156_2974"
    INDEX 01 05:10:25
  TRACK 163 AUDIO
    TITLE "2:cjc156_2975"
    INDEX 01 05:13:17
  TRACK 164 AUDIO
    TITLE "3:cjc156_2976"
    INDEX 01 05:14:54
  TRACK 165 AUDIO
    TITLE "2:cjc156_2977"
    INDEX 01 05:16:17
  TRACK 166 AUDIO
    TITLE "3:cjc156_2978"
    INDEX 01 05:17:29
  TRACK 167 AUDIO
    TITLE "2:cjc156_2979"
    INDEX 01 05:18:42
  TRACK 168 AUDIO
    TITLE "3:cjc156_2980"
    INDEX 01 05:20:31
  TRACK 169 AUDIO
    TITLE "2:cjc156_2981"
    INDEX 01 05:22:28
  TRACK 170 AUDIO
    TITLE "3:cjc156_2982"
    INDEX 01 05:23:62
  TRACK 171 AUDIO
    TITLE "2:cjc156_2983"
    INDEX 01 05:25:32
  TRACK 172 AUDIO
    TITLE "3:cjc156_2984"
    INDEX 01 05:27:19
  TRACK 173 AUDIO
    TITLE "2:cjc156_2985"
    INDEX 01 05:29:16
  TRACK 174 AUDIO
    TITLE "3:cjc156_2986"
    INDEX 01 05:30:29
  TRACK 175 AUDIO
    TITLE "2:cjc156_2987"
    INDEX 01 05:31:48
  TRACK 176 AUDIO
    TITLE "3:cjc156_2988"
    INDEX 01 05:33:73
  TRACK 177 AUDIO
    TITLE "2:cjc156_2989"
    INDEX 01 05:36:28
  TRACK 178 AUDIO
    TITLE "3:cjc156_2990"
    INDEX 01 05:37:67
  TRACK 179 AUDIO
    TITLE "2:cjc156_2991"
    INDEX 01 05:39:36
  TRACK 180 AUDIO
    TITLE "3:cjc156_2992"
    INDEX 01 05:41:21
  TRACK 181 AUDIO
    TITLE "2:cjc156_2993"
    INDEX 01 05:43:18
  TRACK 182 AUDIO
    TITLE "3:cjc156_2994"
    INDEX 01 05:44:57
  TRACK 183 AUDIO
    TITLE "2:cjc156_2995"
    INDEX 01 05:46:30
  TRACK 184 AUDIO
    TITLE "3:cjc156_2996"
    INDEX 01 05:47:73
  TRACK 185 AUDIO
    TITLE "2:cjc156_2997"
    INDEX 01 05:49:50
  TRACK 186 AUDIO
    TITLE "3:cjc156_2998"
    INDEX 01 05:51:08
  TRACK 187 AUDIO
    TITLE "2:cjc156_2999"
    INDEX 01 05:52:48
  TRACK 188 AUDIO
    TITLE "3:cjc156_3000"
    INDEX 01 05:53:68
  TRACK 189 AUDIO
    TITLE "2:cjc156_3001"
    INDEX 01 05:55:23
  TRACK 190 AUDIO
    TITLE "3:cjc156_3002"
    INDEX 01 05:57:50
  TRACK 191 AUDIO
    TITLE "2:cjc156_3003"
    INDEX 01 06:00:03
  TRACK 192 AUDIO
    TITLE "3:cjc156_3004"
    INDEX 01 06:01:24
  TRACK 193 AUDIO
    TITLE "2:cjc156_3005"
    INDEX 01 06:02:59
  TRACK 194 AUDIO
    TITLE "3:cjc156_3006"
    INDEX 01 06:04:38
  TRACK 195 AUDIO
    TITLE "2:cjc156_3007"
    INDEX 01 06:06:25
  TRACK 196 AUDIO
    TITLE "3:cjc156_3008"
    INDEX 01 06:08:42
  TRACK 197 AUDIO
    TITLE "2:cjc156_3009"
    INDEX 01 06:10:64
  TRACK 198 AUDIO
    TITLE "3:cjc156_3010"
    INDEX 01 06:12:47
  TRACK 199 AUDIO
    TITLE "2:cjc156_3011"
    INDEX 01 06:14:40
  TRACK 200 AUDIO
    TITLE "3:cjc156_3012"
    INDEX 01 06:16:51
  TRACK 201 AUDIO
    TITLE "2:cjc156_3013"
    INDEX 01 06:18:67
  TRACK 202 AUDIO
    TITLE "3:cjc156_3014"
    INDEX 01 06:20:68
  TRACK 203 AUDIO
    TITLE "2:cjc156_3015"
    INDEX 01 06:22:73
  TRACK 204 AUDIO
    TITLE "3:cjc156_3016"
    INDEX 01 06:24:27
  TRACK 205 AUDIO
    TITLE "2:cjc156_3017"
    INDEX 01 06:25:62
  TRACK 206 AUDIO
    TITLE "3:cjc156_3018"
    INDEX 01 06:27:59
  TRACK 207 AUDIO
    TITLE "2:cjc156_3019"
    INDEX 01 06:29:67
  TRACK 208 AUDIO
    TITLE "3:cjc156_3020"
    INDEX 01 06:32:07
  TRACK 209 AUDIO
    TITLE "2:cjc156_3021"
    INDEX 01 06:34:35
  TRACK 210 AUDIO
    TITLE "3:cjc156_3022"
    INDEX 01 06:37:04
  TRACK 211 AUDIO
    TITLE "2:cjc156_3023"
    INDEX 01 06:39:58
  TRACK 212 AUDIO
    TITLE "3:cjc156_3024"
    INDEX 01 06:41:61
  TRACK 213 AUDIO
    TITLE "2:cjc156_3025"
    INDEX 01 06:43:71
  TRACK 214 AUDIO
    TITLE "3:cjc156_3026"
    INDEX 01 06:45:09
  TRACK 215 AUDIO
    TITLE "2:cjc156_3027"
    INDEX 01 06:46:32
  TRACK 216 AUDIO
    TITLE "3:cjc156_3028"
    INDEX 01 06:47:55
  TRACK 217 AUDIO
    TITLE "2:cjc156_3029"
    INDEX 01 06:49:17
  TRACK 218 AUDIO
    TITLE "3:cjc156_3030"
    INDEX 01 06:51:38
  TRACK 219 AUDIO
    TITLE "2:cjc156_3031"
    INDEX 01 06:53:64
  TRACK 220 AUDIO
    TITLE "3:cjc156_3032"
    INDEX 01 06:56:43
  TRACK 221 AUDIO
    TITLE "2:cjc156_3033"
    INDEX 01 06:59:27
  TRACK 222 AUDIO
    TITLE "3:cjc156_3034"
    INDEX 01 07:01:12
  TRACK 223 AUDIO
    TITLE "2:cjc156_3035"
    INDEX 01 07:03:09
  TRACK 224 AUDIO
    TITLE "3:cjc156_3036"
    INDEX 01 07:04:72
  TRACK 225 AUDIO
    TITLE "2:cjc156_3037"
    INDEX 01 07:06:65
  TRACK 226 AUDIO
    TITLE "3:cjc156_3038"
    INDEX 01 07:08:56
  TRACK 227 AUDIO
    TITLE "2:cjc156_3039"
    INDEX 01 07:10:53
  TRACK 228 AUDIO
    TITLE "3:cjc156_3040"
    INDEX 01 07:12:18
  TRACK 229 AUDIO
    TITLE "2:cjc156_3041"
    INDEX 01 07:13:69
  TRACK 230 AUDIO
    TITLE "3:cjc156_3042"
    INDEX 01 07:15:11
  TRACK 231 AUDIO
    TITLE "2:cjc156_3043"
    INDEX 01 07:16:30
  TRACK 232 AUDIO
    TITLE "3:cjc156_3044"
    INDEX 01 07:17:33
  TRACK 233 AUDIO
    TITLE "2:cjc156_3045"
    INDEX 01 07:18:44
  TRACK 234 AUDIO
    TITLE "3:cjc156_3046"
    INDEX 01 07:20:69
  TRACK 235 AUDIO
    TITLE "2:cjc156_3047"
    INDEX 01 07:23:28
  TRACK 236 AUDIO
    TITLE "3:cjc156_3048"
    INDEX 01 07:25:05
  TRACK 237 AUDIO
    TITLE "2:cjc156_3049"
    INDEX 01 07:26:63
  TRACK 238 AUDIO
    TITLE "3:cjc156_3050"
    INDEX 01 07:28:23
  TRACK 239 AUDIO
    TITLE "2:cjc156_3051"
    INDEX 01 07:29:64
  TRACK 240 AUDIO
    TITLE "3:cjc156_3052"
    INDEX 01 07:31:14
  TRACK 241 AUDIO
    TITLE "2:cjc156_3053"
    INDEX 01 07:32:46
  TRACK 242 AUDIO
    TITLE "3:cjc156_3054"
    INDEX 01 07:33:52
  TRACK 243 AUDIO
    TITLE "2:cjc156_3055"
    INDEX 01 07:34:63
  TRACK 244 AUDIO
    TITLE "3:cjc156_3056"
    INDEX 01 07:37:30
  TRACK 245 AUDIO
    TITLE "2:cjc156_3057"
    INDEX 01 07:40:09
  TRACK 246 AUDIO
    TITLE "3:cjc156_3058"
    INDEX 01 07:41:28
  TRACK 247 AUDIO
    TITLE "2:cjc156_3059"
    INDEX 01 07:42:58
  TRACK 248 AUDIO
    TITLE "3:cjc156_3060"
    INDEX 01 07:44:67
  TRACK 249 AUDIO
    TITLE "2:cjc156_3061"
    INDEX 01 07:47:11
  TRACK 250 AUDIO
    TITLE "3:cjc156_3062"
    INDEX 01 07:49:19
  TRACK 251 AUDIO
    TITLE "2:cjc156_3063"
    INDEX 01 07:51:40
  TRACK 252 AUDIO
    TITLE "3:cjc156_3064"
    INDEX 01 07:53:52
  TRACK 253 AUDIO
    TITLE "2:cjc156_3065"
    INDEX 01 07:56:06
  TRACK 254 AUDIO
    TITLE "3:cjc156_3066"
    INDEX 01 07:57:15
  TRACK 255 AUDIO
    TITLE "2:cjc156_3067"
    INDEX 01 07:58:34
  TRACK 256 AUDIO
    TITLE "3:cjc156_3068"
    INDEX 01 08:00:11
  TRACK 257 AUDIO
    TITLE "2:cjc156_3069"
    INDEX 01 08:01:68
  TRACK 258 AUDIO
    TITLE "3:cjc156_3070"
    INDEX 01 08:03:21
  TRACK 259 AUDIO
    TITLE "2:cjc156_3071"
    INDEX 01 08:04:62
  TRACK 260 AUDIO
    TITLE "3:cjc156_3072"
    INDEX 01 08:06:51
  TRACK 261 AUDIO
    TITLE "2:cjc156_3073"
    INDEX 01 08:08:48
  TRACK 262 AUDIO
    TITLE "3:cjc156_3074"
    INDEX 01 08:10:68
  TRACK 263 AUDIO
    TITLE "2:cjc156_3075"
    INDEX 01 08:13:22
  TRACK 264 AUDIO
    TITLE "3:cjc156_3076"
    INDEX 01 08:14:23
  TRACK 265 AUDIO
    TITLE "2:cjc156_3077"
    INDEX 01 08:15:30
  TRACK 266 AUDIO
    TITLE "3:cjc156_3078"
    INDEX 01 08:16:59
  TRACK 267 AUDIO
    TITLE "2:cjc156_3079"
    INDEX 01 08:18:25
  TRACK 268 AUDIO
    TITLE "3:cjc156_3080"
    INDEX 01 08:20:24
  TRACK 269 AUDIO
    TITLE "2:cjc156_3081"
    INDEX 01 08:22:30
  TRACK 270 AUDIO
    TITLE "3:cjc156_3082"
    INDEX 01 08:23:73
  TRACK 271 AUDIO
    TITLE "2:cjc156_3083"
    INDEX 01 08:25:43
  TRACK 272 AUDIO
    TITLE "3:cjc156_3084"
    INDEX 01 08:26:66
  TRACK 273 AUDIO
    TITLE "2:cjc156_3085"
    INDEX 01 08:28:23
  TRACK 274 AUDIO
    TITLE "3:cjc156_3086"
    INDEX 01 08:30:30
  TRACK 275 AUDIO
    TITLE "2:cjc156_3087"
    INDEX 01 08:32:47
  TRACK 276 AUDIO
    TITLE "3:cjc156_3088"
    INDEX 01 08:34:04
  TRACK 277 AUDIO
    TITLE "2:cjc156_3089"
    INDEX 01 08:35:53
  TRACK 278 AUDIO
    TITLE "3:cjc156_3090"
    INDEX 01 08:37:54
  TRACK 279 AUDIO
    TITLE "2:cjc156_3091"
    INDEX 01 08:39:60
  TRACK 280 AUDIO
    TITLE "3:cjc156_3092"
    INDEX 01 08:41:28
  TRACK 281 AUDIO
    TITLE "2:cjc156_3093"
    INDEX 01 08:43:01
  TRACK 282 AUDIO
    TITLE "3:cjc156_3094"
    INDEX 01 08:45:22
  TRACK 283 AUDIO
    TITLE "2:cjc156_3095"
    INDEX 01 08:47:48
  TRACK 284 AUDIO
    TITLE "3:cjc156_3096"
    INDEX 01 08:49:20
  TRACK 285 AUDIO
    TITLE "2:cjc156_3097"
    INDEX 01 08:50:68
  TRACK 286 AUDIO
    TITLE "3:cjc156_3098"
    INDEX 01 08:51:73
  TRACK 287 AUDIO
    TITLE "2:cjc156_3099"
    INDEX 01 08:53:17
  TRACK 288 AUDIO
    TITLE "3:cjc156_3100"
    INDEX 01 08:55:18
  TRACK 289 AUDIO
    TITLE "2:cjc156_3101"
    INDEX 01 08:57:35
  TRACK 290 AUDIO
    TITLE "3:cjc156_3102"
    INDEX 01 08:59:18
  TRACK 291 AUDIO
    TITLE "2:cjc156_3103"
    INDEX 01 09:01:11
  TRACK 292 AUDIO
    TITLE "3:cjc156_3104"
    INDEX 01 09:02:18
  TRACK 293 AUDIO
    TITLE "2:cjc156_3105"
    INDEX 01 09:03:31
  TRACK 294 AUDIO
    TITLE "3:cjc156_3106"
    INDEX 01 09:04:39
  TRACK 295 AUDIO
    TITLE "2:cjc156_3107"
    INDEX 01 09:05:48
  TRACK 296 AUDIO
    TITLE "3:cjc156_3108"
    INDEX 01 09:07:33
  TRACK 297 AUDIO
    TITLE "2:cjc156_3109"
    INDEX 01 09:09:28
  TRACK 298 AUDIO
    TITLE "3:cjc156_3110"
    INDEX 01 09:10:53
  TRACK 299 AUDIO
    TITLE "2:cjc156_3111"
    INDEX 01 09:12:15
  TRACK 300 AUDIO
    TITLE "3:cjc156_3112"
    INDEX 01 09:13:55
  TRACK 301 AUDIO
    TITLE "2:cjc156_3113"
    INDEX 01 09:15:31
  TRACK 302 AUDIO
    TITLE "3:cjc156_3114"
    INDEX 01 09:16:56
  TRACK 303 AUDIO
    TITLE "2:cjc156_3115"
    INDEX 01 09:18:11
  TRACK 304 AUDIO
    TITLE "3:cjc156_3116"
    INDEX 01 09:20:67
  TRACK 305 AUDIO
    TITLE "2:cjc156_3117"
    INDEX 01 09:23:60
  TRACK 306 AUDIO
    TITLE "3:cjc156_3118"
    INDEX 01 09:25:13
  TRACK 307 AUDIO
    TITLE "2:cjc156_3119"
    INDEX 01 09:26:56
  TRACK 308 AUDIO
    TITLE "3:cjc156_3120"
    INDEX 01 09:28:20
  TRACK 309 AUDIO
    TITLE "2:cjc156_3121"
    INDEX 01 09:29:66
  TRACK 310 AUDIO
    TITLE "3:cjc156_3122"
    INDEX 01 09:32:57
  TRACK 311 AUDIO
    TITLE "2:cjc156_3123"
    INDEX 01 09:35:51
  TRACK 312 AUDIO
    TITLE "3:cjc156_3124"
    INDEX 01 09:36:72
  TRACK 313 AUDIO
    TITLE "2:cjc156_3125"
    INDEX 01 09:38:24
  TRACK 314 AUDIO
    TITLE "3:cjc156_3126"
    INDEX 01 09:40:27
  TRACK 315 AUDIO
    TITLE "2:cjc156_3127"
    INDEX 01 09:42:31
  TRACK 316 AUDIO
    TITLE "3:cjc156_3128"
    INDEX 01 09:43:58
  TRACK 317 AUDIO
    TITLE "2:cjc156_3129"
    INDEX 01 09:45:22
  TRACK 318 AUDIO
    TITLE "3:cjc156_3130"
    INDEX 01 09:47:42
  TRACK 319 AUDIO
    TITLE "2:cjc156_3131"
    INDEX 01 09:49:71
  TRACK 320 AUDIO
    TITLE "3:cjc156_3132"
    INDEX 01 09:52:28
  TRACK 321 AUDIO
    TITLE "2:cjc156_3133"
    INDEX 01 09:54:64
  TRACK 322 AUDIO
    TITLE "3:cjc156_3134"
    INDEX 01 09:56:65
  TRACK 323 AUDIO
    TITLE "2:cjc156_3135"
    INDEX 01 09:59:01
  TRACK 324 AUDIO
    TITLE "3:cjc156_3136"
    INDEX 01 10:00:47
  TRACK 325 AUDIO
    TITLE "2:cjc156_3137"
    INDEX 01 10:02:30
  TRACK 326 AUDIO
    TITLE "3:cjc156_3138"
    INDEX 01 10:04:45
  TRACK 327 AUDIO
    TITLE "2:cjc156_3139"
    INDEX 01 10:06:69
  TRACK 328 AUDIO
    TITLE "3:cjc156_3140"
    INDEX 01 10:08:00
  TRACK 329 AUDIO
    TITLE "2:cjc156_3141"
    INDEX 01 10:09:21
  TRACK 330 AUDIO
    TITLE "3:cjc156_3142"
    INDEX 01 10:12:27
  TRACK 331 AUDIO
    TITLE "2:cjc156_3143"
    INDEX 01 10:15:39
  TRACK 332 AUDIO
    TITLE "3:cjc156_3144"
    INDEX 01 10:17:40
  TRACK 333 AUDIO
    TITLE "2:cjc156_3145"
    INDEX 01 10:19:44
  TRACK 334 AUDIO
    TITLE "3:cjc156_3146"
    INDEX 01 10:21:02
  TRACK 335 AUDIO
    TITLE "2:cjc156_3147"
    INDEX 01 10:22:43
  TRACK 336 AUDIO
    TITLE "3:cjc156_3148"
    INDEX 01 10:24:48
  TRACK 337 AUDIO
    TITLE "2:cjc156_3149"
    INDEX 01 10:26:64
  TRACK 338 AUDIO
    TITLE "3:cjc156_3150"
    INDEX 01 10:28:08
  TRACK 339 AUDIO
    TITLE "2:cjc156_3151"
    INDEX 01 10:29:37
  TRACK 340 AUDIO
    TITLE "3:cjc156_3152"
    INDEX 01 10:30:40
  TRACK 341 AUDIO
    TITLE "2:cjc156_3153"
    INDEX 01 10:31:55
  TRACK 342 AUDIO
    TITLE "3:cjc156_3154"
    INDEX 01 10:34:17
  TRACK 343 AUDIO
    TITLE "2:cjc156_3155"
    INDEX 01 10:36:62
  TRACK 344 AUDIO
    TITLE "3:cjc156_3156"
    INDEX 01 10:38:28
  TRACK 345 AUDIO
    TITLE "2:cjc156_3157"
    INDEX 01 10:40:01
  TRACK 346 AUDIO
    TITLE "3:cjc156_3158"
    INDEX 01 10:42:08
  TRACK 347 AUDIO
    TITLE "2:cjc156_3159"
    INDEX 01 10:44:29
  TRACK 348 AUDIO
    TITLE "3:cjc156_3160"
    INDEX 01 10:46:30
  TRACK 349 AUDIO
    TITLE "2:cjc156_3161"
    INDEX 01 10:48:40
  TRACK 350 AUDIO
    TITLE "3:cjc156_3162"
    INDEX 01 10:49:57
  TRACK 351 AUDIO
    TITLE "2:cjc156_3163"
    INDEX 01 10:51:09
  TRACK 352 AUDIO
    TITLE "3:cjc156_3164"
    INDEX 01 10:52:20
  TRACK 353 AUDIO
    TITLE "2:cjc156_3165"
    INDEX 01 10:53:43
  TRACK 354 AUDIO
    TITLE "3:cjc156_3166"
    INDEX 01 10:55:54
  TRACK 355 AUDIO
    TITLE "2:cjc156_3167"
    INDEX 01 10:57:74
  TRACK 356 AUDIO
    TITLE "3:cjc156_3168"
    INDEX 01 10:59:36
  TRACK 357 AUDIO
    TITLE "2:cjc156_3169"
    INDEX 01 11:01:08
  TRACK 358 AUDIO
    TITLE "3:cjc156_3170"
    INDEX 01 11:02:54
  TRACK 359 AUDIO
    TITLE "2:cjc156_3171"
    INDEX 01 11:04:35
  TRACK 360 AUDIO
    TITLE "3:cjc156_3172"
    INDEX 01 11:07:49
  TRACK 361 AUDIO
    TITLE "2:cjc156_3173"
    INDEX 01 11:10:73
  TRACK 362 AUDIO
    TITLE "3:cjc156_3174"
    INDEX 01 11:12:13
  TRACK 363 AUDIO
    TITLE "2:cjc156_3175"
    INDEX 01 11:13:40
  TRACK 364 AUDIO
    TITLE "3:cjc156_3176"
    INDEX 01 11:15:39
  TRACK 365 AUDIO
    TITLE "2:cjc156_3177"
    INDEX 01 11:17:56
  TRACK 366 AUDIO
    TITLE "3:cjc156_3178"
    INDEX 01 11:19:29
  TRACK 367 AUDIO
    TITLE "2:cjc156_3179"
    INDEX 01 11:21:14
  TRACK 368 AUDIO
    TITLE "3:cjc156_3180"
    INDEX 01 11:23:11
  TRACK 369 AUDIO
    TITLE "2:cjc156_3181"
    INDEX 01 11:25:32
  TRACK 370 AUDIO
    TITLE "3:cjc156_3182"
    INDEX 01 11:26:72
  TRACK 371 AUDIO
    TITLE "2:cjc156_3183"
    INDEX 01 11:28:51
  TRACK 372 AUDIO
    TITLE "3:cjc156_3184"
    INDEX 01 11:31:36
  TRACK 373 AUDIO
    TITLE "2:cjc156_3185"
    INDEX 01 11:34:29
  TRACK 374 AUDIO
    TITLE "3:cjc156_3186"
    INDEX 01 11:35:61
  TRACK 375 AUDIO
    TITLE "2:cjc156_3187"
    INDEX 01 11:37:33
  TRACK 376 AUDIO
    TITLE "3:cjc156_3188"
    INDEX 01 11:38:64
  TRACK 377 AUDIO
    TITLE "2:cjc156_3189"
    INDEX 01 11:40:23
  TRACK 378 AUDIO
    TITLE "3:cjc156_3190"
    INDEX 01 11:41:64
  TRACK 379 AUDIO
    TITLE "2:cjc156_3191"
    INDEX 01 11:43:31
  TRACK 380 AUDIO
    TITLE "3:cjc156_3192"
    INDEX 01 11:45:11
  TRACK 381 AUDIO
    TITLE "2:cjc156_3193"
    INDEX 01 11:46:67
  TRACK 382 AUDIO
    TITLE "3:cjc156_3194"
    INDEX 01 11:49:38
  TRACK 383 AUDIO
    TITLE "2:cjc156_3195"
    INDEX 01 11:52:15
  TRACK 384 AUDIO
    TITLE "3:cjc156_3196"
    INDEX 01 11:54:39
  TRACK 385 AUDIO
    TITLE "2:cjc156_3197"
    INDEX 01 11:56:73
  TRACK 386 AUDIO
    TITLE "3:cjc156_3198"
    INDEX 01 11:58:54
  TRACK 387 AUDIO
    TITLE "2:cjc156_3199"
    INDEX 01 12:00:57
  TRACK 388 AUDIO
    TITLE "3:cjc156_3200"
    INDEX 01 12:02:64
  TRACK 389 AUDIO
    TITLE "2:cjc156_3201"
    INDEX 01 12:05:08
  TRACK 390 AUDIO
    TITLE "3:cjc156_3202"
    INDEX 01 12:06:54
  TRACK 391 AUDIO
    TITLE "2:cjc156_3203"
    INDEX 01 12:08:35
  TRACK 392 AUDIO
    TITLE "3:cjc156_3204"
    INDEX 01 12:09:48
  TRACK 393 AUDIO
    TITLE "2:cjc156_3205"
    INDEX 01 12:11:00
  TRACK 394 AUDIO
    TITLE "3:cjc156_3206"
    INDEX 01 12:12:70
  TRACK 395 AUDIO
    TITLE "2:cjc156_3207"
    INDEX 01 12:14:71
  TRACK 396 AUDIO
    TITLE "3:cjc156_3208"
    INDEX 01 12:17:03
  TRACK 397 AUDIO
    TITLE "2:cjc156_3209"
    INDEX 01 12:19:14
  TRACK 398 AUDIO
    TITLE "3:cjc156_3210"
    INDEX 01 12:20:35
  TRACK 399 AUDIO
    TITLE "2:cjc156_3211"
    INDEX 01 12:21:63
  TRACK 400 AUDIO
    TITLE "3:cjc156_3212"
    INDEX 01 12:23:21
  TRACK 401 AUDIO
    TITLE "2:cjc156_3213"
    INDEX 01 12:24:70
  TRACK 402 AUDIO
    TITLE "3:cjc156_3214"
    INDEX 01 12:26:65
  TRACK 403 AUDIO
    TITLE "2:cjc156_3215"
    INDEX 01 12:28:69
  TRACK 404 AUDIO
    TITLE "3:cjc156_3216"
    INDEX 01 12:30:62
  TRACK 405 AUDIO
    TITLE "2:cjc156_3217"
    INDEX 01 12:32:63
  TRACK 406 AUDIO
    TITLE "3:cjc156_3218"
    INDEX 01 12:34:25
  TRACK 407 AUDIO
    TITLE "2:cjc156_3219"
    INDEX 01 12:35:73
  TRACK 408 AUDIO
    TITLE "3:cjc156_3220"
    INDEX 01 12:37:57
  TRACK 409 AUDIO
    TITLE "2:cjc156_3221"
    INDEX 01 12:39:51
  TRACK 410 AUDIO
    TITLE "3:cjc156_3222"
    INDEX 01 12:42:56
  TRACK 411 AUDIO
    TITLE "0:"
    INDEX 01 12:45:68
